<svg width="53" height="52" fill="none" xmlns="http://www.w3.org/2000/svg"><g clip-path="url('#clip0_255_24379')" fill="#098ECD"><path d="M24.875 25.188a.813.813 0 1 0 0-1.626.813.813 0 0 0 0 1.625Z"/><path d="M49 21.938a.812.812 0 0 0 .813-.813v-4.989a3.25 3.25 0 1 0-1.626 0v4.177H34.376v-2.438h-2.438V4.063h4.177a3.25 3.25 0 1 0 0-1.625h-4.989a.812.812 0 0 0-.813.812v14.625h-1.625V9.75h-1.625v8.125h-1.625V3.25a.812.812 0 0 0-.812-.812h-4.989a3.25 3.25 0 1 0 0 1.625h4.177v13.812h-2.438v2.438H7.563v-4.177a3.25 3.25 0 1 0-1.625 0v4.989a.812.812 0 0 0 .812.813h14.625v1.625H13.25v1.625h8.125v1.625H6.75a.812.812 0 0 0-.812.812v4.989a3.25 3.25 0 1 0 1.625 0v-4.176h13.812v2.437h2.438v13.813h-4.177a3.25 3.25 0 1 0 0 1.624h4.989a.812.812 0 0 0 .813-.812V30.875h1.625V39h1.625v-8.125h1.625V45.5a.812.812 0 0 0 .812.813h4.989a3.25 3.25 0 1 0 0-1.626h-4.176V30.876h2.437v-2.438h13.813v4.177a3.25 3.25 0 1 0 1.624 0v-4.989a.812.812 0 0 0-.812-.813H34.375v-1.625H42.5v-1.625h-8.125v-1.625H49Zm-20.313 6.5h-4.875v-1.625h4.875v1.625Zm-2.437-3.25a2.438 2.438 0 1 1 0-4.876 2.438 2.438 0 0 1 0 4.875Zm5.688 0h-1.625v-4.875h1.625v4.875Z"/></g><defs><clipPath id="clip0_255_24379"><path fill="#fff" transform="translate(.5)" d="M0 0h52v52H0z"/></clipPath></defs></svg>