<svg width="53" height="53" fill="none" xmlns="http://www.w3.org/2000/svg"><path d="M4.563 5.375a.812.812 0 0 0-.813.813v35.75a.812.812 0 0 0 .813.812h6.906v-1.625H5.375V13.5h39v16.634c.016.078.055.146.065.225a2.553 2.553 0 0 1 1.56-.565V6.187a.812.812 0 0 0-.813-.812H4.563ZM5.375 7h39v4.875h-39V7Zm2.438 1.625a.812.812 0 1 0 0 1.625.812.812 0 0 0 0-1.625Zm3.25 0a.812.812 0 1 0 0 1.625.812.812 0 0 0 0-1.625Zm3.25 0a.812.812 0 1 0 0 1.625.812.812 0 0 0 0-1.625ZM28.97 16.75a.847.847 0 0 0-.076.003.812.812 0 0 0-.65.39l-8.114 12.98a.812.812 0 0 0 1.378.862l8.112-12.982a.812.812 0 0 0-.65-1.253Zm-11.433 1.625a.813.813 0 0 0-.558.247l-4.815 4.818a.815.815 0 0 0-.198.249l-.002.001-.01.023a.854.854 0 0 0-.067.21.813.813 0 0 0 .29.778l4.802 4.805a.811.811 0 0 0 1.397-.571.812.812 0 0 0-.248-.578l-4.292-4.294 4.29-4.29a.813.813 0 0 0-.59-1.398Zm14.65 0a.812.812 0 0 0-.565 1.398l4.292 4.29-4.29 4.294a.814.814 0 0 0-.025 1.173.812.812 0 0 0 1.172-.024l4.812-4.815a.813.813 0 0 0 .045-1.209l-.003-.003-4.854-4.857a.813.813 0 0 0-.584-.247Zm6.351 11.375a.812.812 0 0 0-.813.813v1.454a8.732 8.732 0 0 0-1.456.596l-1.023-1.019a.812.812 0 0 0-1.148 0l-2.507 2.503a.812.812 0 0 0 0 1.15l1.024 1.024c-.244.47-.449.954-.605 1.458h-1.447a.813.813 0 0 0-.813.812v3.546a.812.812 0 0 0 .813.813h1.45c.157.503.355.99.6 1.459l-1.023 1.023a.813.813 0 0 0 0 1.148l2.509 2.504a.813.813 0 0 0 1.148 0l1.024-1.022c.468.243.952.443 1.454.601v1.45a.812.812 0 0 0 .813.812h3.549a.812.812 0 0 0 .813-.813v-1.45a8.733 8.733 0 0 0 1.456-.597l1.023 1.019a.812.812 0 0 0 1.148 0l2.507-2.503a.813.813 0 0 0 0-1.15l-1.024-1.024c.244-.47.449-.954.605-1.457h1.447a.812.812 0 0 0 .813-.813v-3.546a.813.813 0 0 0-.813-.812h-1.45a8.752 8.752 0 0 0-.6-1.46l1.023-1.023a.812.812 0 0 0 0-1.148l-2.508-2.504a.813.813 0 0 0-1.15 0l-1.023 1.023a8.737 8.737 0 0 0-1.454-.602v-1.453a.812.812 0 0 0-.813-.812h-3.549Zm.813 1.625h1.924v1.168a.813.813 0 0 0 .63.793c.786.18 1.534.49 2.216.917a.813.813 0 0 0 1.006-.114l.826-.822 1.358 1.355-.822.822a.813.813 0 0 0-.114 1.003c.426.684.733 1.437.91 2.223a.813.813 0 0 0 .793.634h1.172v1.92h-1.168a.813.813 0 0 0-.793.631 7.144 7.144 0 0 1-.917 2.22.813.813 0 0 0 .114 1.006l.825.825-1.358 1.355-.822-.819a.812.812 0 0 0-1.003-.113 7.201 7.201 0 0 1-2.223.91.813.813 0 0 0-.63.79v1.171H39.35v-1.168a.812.812 0 0 0-.63-.79 7.149 7.149 0 0 1-2.216-.918.813.813 0 0 0-1.006.113l-.826.824-1.358-1.355.822-.822a.813.813 0 0 0 .114-1.008 7.157 7.157 0 0 1-.91-2.218.813.813 0 0 0-.793-.633h-1.172v-1.921h1.168a.812.812 0 0 0 .793-.632 7.19 7.19 0 0 1 .917-2.218.813.813 0 0 0-.114-1.006l-.825-.826 1.358-1.355.822.819a.813.813 0 0 0 1.003.114 7.211 7.211 0 0 1 2.223-.914.813.813 0 0 0 .63-.786v-1.175Zm-19.96 2.811a.813.813 0 0 0-.813.813v.832a6.445 6.445 0 0 0-.686.28l-.586-.586a.812.812 0 0 0-1.15 0l-1.722 1.724a.812.812 0 0 0 0 1.15l.585.587c-.108.223-.203.451-.284.685h-.829a.813.813 0 0 0-.812.812v2.438a.813.813 0 0 0 .812.812h.832c.082.236.17.463.28.686l-.585.588a.812.812 0 0 0 0 1.149l1.722 1.723a.813.813 0 0 0 1.15 0l.587-.587c.225.109.452.201.686.283v.83a.812.812 0 0 0 .813.813h2.437a.812.812 0 0 0 .813-.813v-.83c.234-.081.462-.176.685-.283l.587.587a.813.813 0 0 0 1.149 0l1.722-1.723a.812.812 0 0 0 0-1.154l-.583-.583c.109-.223.201-.45.283-.686h.828a.812.812 0 0 0 .813-.812v-2.438a.812.812 0 0 0-.813-.812h-.832a6.282 6.282 0 0 0-.282-.684l.588-.589a.813.813 0 0 0 0-1.149l-1.723-1.722a.813.813 0 0 0-1.15 0l-.587.587a6.188 6.188 0 0 0-.685-.286v-.83a.813.813 0 0 0-.813-.812h-2.437Zm.812 1.625h.813v.55a.813.813 0 0 0 .632.79c.512.118 1.002.321 1.446.6a.813.813 0 0 0 1.008-.113l.386-.389.574.576-.387.383a.813.813 0 0 0-.114 1.008c.277.445.481.932.597 1.446a.813.813 0 0 0 .79.634h.552v.812h-.55a.812.812 0 0 0-.792.634 4.66 4.66 0 0 1-.597 1.443.812.812 0 0 0 .114 1.007l.387.39-.574.57-.385-.384a.812.812 0 0 0-1.006-.114 4.668 4.668 0 0 1-1.446.593.813.813 0 0 0-.635.795v.552h-.813v-.55a.812.812 0 0 0-.632-.794 4.681 4.681 0 0 1-1.446-.596.812.812 0 0 0-1.008.11l-.387.389-.573-.575.387-.387a.813.813 0 0 0 .113-1.003 4.671 4.671 0 0 1-.596-1.446.813.813 0 0 0-.79-.636h-.552v-.812h.549a.813.813 0 0 0 .793-.634c.117-.51.319-1 .596-1.446a.813.813 0 0 0-.113-1.006l-.387-.387.573-.575.386.385a.813.813 0 0 0 1.006.114 4.67 4.67 0 0 1 1.446-.593.813.813 0 0 0 .635-.791v-.55Zm20.11.442a4.079 4.079 0 0 0-4.063 4.06 4.079 4.079 0 0 0 4.063 4.062 4.079 4.079 0 0 0 4.062-4.063 4.079 4.079 0 0 0-4.063-4.059Zm0 1.625a2.44 2.44 0 0 1 2.437 2.434 2.443 2.443 0 0 1-2.438 2.438 2.443 2.443 0 0 1-2.437-2.438 2.44 2.44 0 0 1 2.438-2.434Zm-19.704 1.15a2.688 2.688 0 0 0-2.674 2.674 2.685 2.685 0 0 0 2.674 2.673 2.686 2.686 0 0 0 2.675-2.673 2.687 2.687 0 0 0-2.675-2.675Zm0 1.624a1.049 1.049 0 1 1 0 2.097 1.049 1.049 0 0 1 0-2.097Z" fill="#2F73DA"/></svg>