<svg width="53" height="52" fill="none" xmlns="http://www.w3.org/2000/svg"><path d="M8.147 14.53h24.47v35.176H8.148V14.529Z" fill="#fff"/><path d="M33.382 50.47h-26V13.766h26V50.47Zm-24.47-1.529h22.94V15.294H8.913v33.647Z" fill="#2F73DA"/><path d="M14.265 8.412h24.47v35.176h-24.47V8.412Z" fill="#fff"/><path d="M39.5 44.353h-26V7.647h26v36.706Zm-24.47-1.53h22.94V9.176H15.03v33.647Z" fill="#2F73DA"/><path d="M20.382 2.294h24.47v35.177h-24.47V2.294Z" fill="#fff"/><path d="M45.618 38.235h-26V1.53h26v36.706Zm-24.47-1.53h22.94V3.06h-22.94v33.647Z" fill="#2F73DA"/><path d="M42.176 7.647H23.823a.765.765 0 0 1 0-1.53h18.353a.765.765 0 1 1 0 1.53Zm0 4.588H23.823a.764.764 0 1 1 0-1.53h18.353a.765.765 0 0 1 0 1.53Zm0 4.589H23.823a.765.765 0 0 1 0-1.53h18.353a.765.765 0 0 1 0 1.53Zm0 4.588H23.823a.765.765 0 0 1 0-1.53h18.353a.764.764 0 1 1 0 1.53Zm0 4.588H23.823a.765.765 0 1 1 0-1.53h18.353a.765.765 0 0 1 0 1.53Zm0 4.588H23.823a.765.765 0 0 1 0-1.53h18.353a.765.765 0 1 1 0 1.53Z" fill="#2F73DA"/></svg>