<svg width="1952" height="1290" fill="none" xmlns="http://www.w3.org/2000/svg"><g clip-path="url('#clip0_255_26788')"><g clip-path="url('#clip1_255_26788')"><path fill-rule="evenodd" clip-rule="evenodd" d="M515.49 366.383c0 24.85-19.11 44.996-42.683 44.996s-42.684-20.146-42.684-44.996c0-24.851 19.111-44.996 42.684-44.996 23.573 0 42.683 20.145 42.683 44.996M1708.38 839.945c0 24.851-19.11 44.995-42.69 44.995-23.57 0-42.68-20.144-42.68-44.995s19.11-44.995 42.68-44.995c23.58 0 42.69 20.144 42.69 44.995" fill="#C3E4FF"/><path fill-rule="evenodd" clip-rule="evenodd" d="M1911.41 366.383c0 24.85-19.11 44.996-42.68 44.996s-42.68-20.146-42.68-44.996c0-24.851 19.11-44.996 42.68-44.996s42.68 20.145 42.68 44.996" fill="#D6EEFF"/><mask id="mask0_255_26788" style="mask-type:luminance" maskUnits="userSpaceOnUse" x="0" y="732" width="87" height="91"><path fill-rule="evenodd" clip-rule="evenodd" d="M.68 732.168h85.366v89.992H.68v-89.992Z" fill="#fff"/></mask><g mask="url('#mask0_255_26788')"><path fill-rule="evenodd" clip-rule="evenodd" d="M86.047 777.163c0 24.851-19.11 44.997-42.683 44.997S.68 802.014.68 777.163c0-24.85 19.11-44.995 42.684-44.995 23.572 0 42.683 20.145 42.683 44.995" fill="#D6EEFF"/></g><path fill-rule="evenodd" clip-rule="evenodd" d="M1338.56 286.33c-5.88 15.486-22.57 23.008-37.26 16.801-14.69-6.208-21.82-23.794-15.94-39.281 5.89-15.486 22.58-23.009 37.27-16.801 14.69 6.208 21.82 23.795 15.93 39.281M476.251 899.726c-8.074 0-14.623 20.94-14.623 46.766 0-25.826-6.545-46.766-14.623-46.766 8.078 0 14.623-20.94 14.623-46.765 0 25.825 6.549 46.765 14.623 46.765" fill="#D6EEFF"/><path fill-rule="evenodd" clip-rule="evenodd" d="M212.501 999.892c0 6.138-4.721 11.118-10.545 11.118-5.825 0-10.546-4.98-10.546-11.118 0-6.139 4.721-11.116 10.546-11.116 5.824 0 10.545 4.977 10.545 11.116" fill="#C3E4FF"/><path fill-rule="evenodd" clip-rule="evenodd" d="M594.321 610.745c0 10.386-7.986 18.805-17.839 18.805-9.851 0-17.838-8.419-17.838-18.805s7.987-18.805 17.838-18.805c9.853 0 17.839 8.419 17.839 18.805" fill="#AAD5FF"/><path fill-rule="evenodd" clip-rule="evenodd" d="M729.746 332.381c0 6.139-4.721 11.116-10.544 11.116-5.825 0-10.546-4.977-10.546-11.116 0-6.14 4.721-11.117 10.546-11.117 5.823 0 10.544 4.977 10.544 11.117M472.173 444.201c0 6.139-4.721 11.116-10.545 11.116-5.825 0-10.546-4.977-10.546-11.116 0-6.14 4.721-11.117 10.546-11.117 5.824 0 10.545 4.977 10.545 11.117M34.084 339.326c0 6.139-4.721 11.116-10.545 11.116-5.825 0-10.546-4.977-10.546-11.116 0-6.139 4.721-11.117 10.546-11.117 5.824 0 10.545 4.978 10.545 11.117M1826.05 305.976c0 6.139-4.72 11.116-10.55 11.116-5.82 0-10.54-4.977-10.54-11.116 0-6.139 4.72-11.116 10.54-11.116 5.83 0 10.55 4.977 10.55 11.116M1951.07 497.547c0 6.139-4.72 11.116-10.55 11.116-5.82 0-10.54-4.977-10.54-11.116 0-6.139 4.72-11.116 10.54-11.116 5.83 0 10.55 4.977 10.55 11.116M1404.32 650.045c0 6.139-4.72 11.116-10.55 11.116-5.82 0-10.54-4.977-10.54-11.116 0-6.139 4.72-11.116 10.54-11.116 5.83 0 10.55 4.977 10.55 11.116M1438.27 328.21c0 6.14-4.72 11.117-10.54 11.117-5.83 0-10.55-4.977-10.55-11.117 0-6.14 4.72-11.117 10.55-11.117 5.82 0 10.54 4.977 10.54 11.117" fill="#D6EEFF"/><path fill-rule="evenodd" clip-rule="evenodd" d="M1889.82 1009.54c0 6.14-4.72 11.12-10.54 11.12-5.83 0-10.55-4.98-10.55-11.12 0-6.14 4.72-11.114 10.55-11.114 5.82 0 10.54 4.974 10.54 11.114" fill="#C3E4FF"/><path fill-rule="evenodd" clip-rule="evenodd" d="M905.216 339.326c-9.667 0-17.508 25.073-17.508 55.994 0-30.921-7.837-55.994-17.508-55.994 9.671 0 17.508-25.072 17.508-55.994 0 30.922 7.841 55.994 17.508 55.994M1459.46 1020.66c-11.7 0-21.19 30.34-21.19 67.75 0-37.41-9.48-67.75-21.18-67.75 11.7 0 21.18-30.338 21.18-67.752 0 37.414 9.49 67.752 21.19 67.752" fill="#E8F6FF"/><path fill-rule="evenodd" clip-rule="evenodd" d="M1940.52 770.453c-9.17 0-16.61 23.782-16.61 53.113 0-29.331-7.43-53.113-16.6-53.113 9.17 0 16.6-23.783 16.6-53.114 0 29.331 7.44 53.114 16.61 53.114M995.914 524.486c0 7.438-5.719 13.467-12.775 13.467-7.057 0-12.778-6.029-12.778-13.467 0-7.438 5.721-13.469 12.778-13.469 7.056 0 12.775 6.031 12.775 13.469" fill="#D6EEFF"/><path fill-rule="evenodd" clip-rule="evenodd" d="M795.846 457.015c0 4.587-3.528 8.305-7.878 8.305-4.351 0-7.878-3.718-7.878-8.305s3.527-8.304 7.878-8.304c4.35 0 7.878 3.717 7.878 8.304" fill="#C3E4FF"/><path fill-rule="evenodd" clip-rule="evenodd" d="M1126.65 352.508c0 13.457-10.35 24.367-23.11 24.367-12.77 0-23.12-10.91-23.12-24.367 0-13.458 10.35-24.367 23.12-24.367 12.76 0 23.11 10.909 23.11 24.367" fill="#D6EEFF"/><path fill-rule="evenodd" clip-rule="evenodd" d="M1731.66 1198.2c0 6.77-5.21 12.27-11.64 12.27-6.43 0-11.64-5.5-11.64-12.27 0-6.78 5.21-12.28 11.64-12.28 6.43 0 11.64 5.5 11.64 12.28M1565 1171.46c0 4.26-3.28 7.72-7.32 7.72-4.04 0-7.32-3.46-7.32-7.72s3.28-7.72 7.32-7.72c4.04 0 7.32 3.46 7.32 7.72" fill="#AAD5FF"/><path fill-rule="evenodd" clip-rule="evenodd" d="M545.07 770.453c0 4.261-3.277 7.716-7.319 7.716-4.043 0-7.321-3.455-7.321-7.716 0-4.262 3.278-7.716 7.321-7.716 4.042 0 7.319 3.454 7.319 7.716M230.274 823.567c0 5.174-3.978 9.368-8.886 9.368-4.908 0-8.887-4.194-8.887-9.368s3.979-9.368 8.887-9.368 8.886 4.194 8.886 9.368M209.611 651.965C311.175 665.7 404.07 590.038 417.099 482.972c13.028-107.066-58.744-204.994-160.308-218.729C155.228 250.51 62.333 326.17 49.304 433.236 36.275 540.302 108.048 638.231 209.61 651.965" fill="#D6EEFF"/><path fill-rule="evenodd" clip-rule="evenodd" d="M299.213 375.636c15.379 2.08 29.447-9.378 31.42-25.59 1.973-16.213-8.895-31.043-24.276-33.122-15.379-2.081-29.447 9.377-31.419 25.59-1.974 16.213 8.896 31.043 24.275 33.122M301.259 420.891c6.131.829 11.739-3.738 12.526-10.203.786-6.462-3.547-12.375-9.678-13.204-6.132-.828-11.739 3.738-12.526 10.202-.786 6.464 3.547 12.375 9.678 13.205M176.054 576.57c6.131.83 11.739-3.738 12.526-10.201.786-6.464-3.547-12.376-9.678-13.206-6.132-.828-11.739 3.739-12.526 10.202-.786 6.464 3.547 12.377 9.678 13.205" fill="#E8F6FF"/><path fill-rule="evenodd" clip-rule="evenodd" d="M116.786 490.682c57.906 49.662 104.649-26.148 104.649-26.148-80.07 25.836-102.226-55.065-9.196-87.165 57.699-19.912 51.105-74.965 37.772-113.902-98.886-9.563-187.968 65.083-200.707 169.774-4.168 34.249.337 67.562 11.73 97.487 3.885-5.706 6.867-11.247 8.388-15.72 6.76-19.85 4.965-60.69 47.364-24.326M209.612 651.971c101.569 13.734 194.46-61.934 207.488-168.993 3.643-29.94.653-59.163-7.756-86.029-6.046 10.489-18.016 20.437-40.624 7.303-38.576-22.393-46.456 40.304-15.185 62.285 17.643 12.403 33.218 35.12 11.414 51.669-23.953 18.182-65.01-61.865-103.002-32.449-51.022 39.508 38.447 98.862 4.305 116.584-21.343 11.078-36.643-19.995-36.643-19.995s-46.641 45.781-88.882 7.599c-14.053-12.703-33.524-14.176-43.768.734 28.516 32.6 67.666 55.209 112.653 61.292" fill="#C3E4FF"/><path fill-rule="evenodd" clip-rule="evenodd" d="M1774.1 557.747c-17.42 106.853-113.72 178.584-215.08 160.215-101.36-18.37-169.4-119.883-151.98-226.737 17.43-106.853 113.72-178.583 215.08-160.214 101.37 18.37 169.41 119.883 151.98 226.736" fill="#D6EEFF"/><path fill-rule="evenodd" clip-rule="evenodd" d="M1776.78 519.918c-39.98 8.346-139.25 22.712-217.13-18.626-73.1-38.814-80.38-76.41-115.66-97.94a189.477 189.477 0 0 1 19.13-21.987c36.99 1.884 98.17 12.914 159.9 58.56 52.41 38.765 108.73 46.102 149.9 44.502a205.35 205.35 0 0 1 3.86 35.491M1531.51 534.665c-2.73 1.145-53.38 21.531-127.19-9.036a207.64 207.64 0 0 1 2.72-34.407 205.116 205.116 0 0 1 10.16-38.507c26.3 29.865 86.12 92.783 114.31 81.95M1764.35 595.145c-7.6 20.854-18.4 39.787-31.68 56.27-46.51-18.157-134.81-46.422-201.04-30.431-37.18 8.974-71.46 9.565-99.31 6.98a202.205 202.205 0 0 1-21.15-50.644c39.93-.567 116.01-4.235 179.41-22.307 65.04-18.539 127.84 21.642 173.77 40.132M1700.79 682.732a184.932 184.932 0 0 1-25.63 16.656c-45.84-19.413-104.5-40.377-136.16-34.505 3.91-.887 69.85-14.871 161.79 17.849M1760.3 443.643c-35.68-2.561-109.26-14.92-168.63-71.141-32.68-30.948 26.35-24.879 108.87-6.488 25.99 20.066 46.55 46.915 59.76 77.629M1611.53 719.602c-17.08 2.032-34.71 1.588-52.51-1.637-40-7.251-74.81-27.452-101.22-55.827 32.25 2.204 97.09 12.47 153.73 57.464M1550.38 366.272c-5.92-.566-30.02-3.434-48.52-14.39a181.66 181.66 0 0 1 30.01-13.739c6.73 13.579 14.1 26.455 18.51 28.129M1551.75 366.383c-.41.111-.85.062-1.34-.111.86.074 1.34.111 1.34.111" fill="#E8F6FF"/><path d="M1824.33 527.071c80.55 27.313 130.28 55.814 126.82 77.033-6.07 37.209-173.43 37.934-373.83 1.617-200.39-36.316-357.92-95.921-351.85-133.132 3.56-21.797 62.46-31.074 150.93-27.72" stroke="#AAD5FF" stroke-width="19.6" stroke-linecap="round"/></g><g clip-path="url('#clip2_255_26788')"><mask id="mask1_255_26788" style="mask-type:luminance" maskUnits="userSpaceOnUse" x="800" y="1282" width="484" height="8"><path fill-rule="evenodd" clip-rule="evenodd" d="M800.052 1282.31h483.498v6.96H800.052v-6.96Z" fill="#fff"/></mask><g mask="url('#mask1_255_26788')"><path fill-rule="evenodd" clip-rule="evenodd" d="M800.052 1285.79c0 1.92 108.235 3.48 241.748 3.48 133.52 0 241.75-1.56 241.75-3.48s-108.23-3.48-241.75-3.48c-133.513 0-241.748 1.56-241.748 3.48" fill="#C3E4FF"/></g><mask id="mask2_255_26788" style="mask-type:luminance" maskUnits="userSpaceOnUse" x="788" y="201" width="510" height="704"><path fill-rule="evenodd" clip-rule="evenodd" d="M788.654 201.165h508.376v703.364H788.654V201.165Z" fill="#fff"/></mask><g mask="url('#mask2_255_26788')"><path fill-rule="evenodd" clip-rule="evenodd" d="M1281.51 904.529H804.172c-8.535 0-15.518-7.36-15.518-16.355V217.521c0-8.996 6.983-16.356 15.518-16.356h477.338c8.53 0 15.52 7.36 15.52 16.356v670.653c0 8.995-6.99 16.355-15.52 16.355" fill="#2F73DA"/></g><path fill-rule="evenodd" clip-rule="evenodd" d="M924.495 506.546h319.345v-13.025H924.495v13.025ZM924.495 533.781h224.975v-13.025H924.495v13.025ZM924.495 843.498h218.055v-17.91H924.495v17.91Z" fill="#fff"/><path clip-rule="evenodd" d="M857.747 546.214c-16.993 0-30.895-14.653-30.895-32.563 0-17.909 13.902-32.563 30.895-32.563 16.992 0 30.895 14.654 30.895 32.563 0 17.91-13.903 32.563-30.895 32.563ZM857.747 762.676c-16.993 0-30.895-14.653-30.895-32.563 0-17.91 13.902-32.563 30.895-32.563 16.992 0 30.895 14.653 30.895 32.563 0 17.91-13.903 32.563-30.895 32.563ZM857.747 654.445c-16.993 0-30.895-14.653-30.895-32.563 0-17.909 13.902-32.563 30.895-32.563 16.992 0 30.895 14.654 30.895 32.563 0 17.91-13.903 32.563-30.895 32.563Z" stroke="#fff" stroke-width="4.2"/><path fill-rule="evenodd" clip-rule="evenodd" d="M924.495 614.777h319.345v-13.025H924.495v13.025ZM924.495 642.011h224.975v-13.025H924.495v13.025ZM924.495 723.009h319.345v-13.026H924.495v13.026ZM924.495 750.243h224.975v-13.026H924.495v13.026Z" fill="#fff"/><path d="m826.825 391.777 22.676 18.897 40.194-48.991M826.825 283.545l22.676 18.897 40.194-48.99" stroke="#fff" stroke-width="6.3"/><path fill-rule="evenodd" clip-rule="evenodd" d="M924.495 268.962h319.345v-16.473H924.495v16.473ZM924.495 303.406h224.975v-16.474H924.495v16.474ZM924.495 377.193h319.345v-16.474H924.495v16.474ZM924.495 411.636h224.975v-16.473H924.495v16.473Z" fill="#fff"/><path d="M843.793 451.433h396.217" stroke="#6FA1EC" stroke-width="2.1"/><path d="M857.747 809.48v50.128M833.967 834.543h47.561" stroke="#fff" stroke-width="6.3"/><path fill-rule="evenodd" clip-rule="evenodd" d="m889.001 570.272 2.032-6.879s1.146-4.864 1.808-10.279c.661-5.416-1.235-12.589 4.527-20.83 5.759-8.233-4.275-4.288-7.206-.427-2.443 3.219-3.444 11.176-6.046 13.446-1.405-1.426-2.193-2.986-2.193-2.986l-18.742-32.587c-.387-1.031-1.418-1.601-2.415-1.347l-1.125.297c-1.185.312-1.855 1.651-1.437 2.888 2.243 6.688 9.412 23.923 9.072 24.006l-10.301 16.083s.885 10.729 5.952 18.082c2.138 3.116 5.762 6.602 7.745 8.555" fill="#FF77CA"/><path fill-rule="evenodd" clip-rule="evenodd" d="M975.507 711.323s-63.317-37.876-76.435-52.835c-14.624-21.872-30.712-88.339-30.712-88.339l20.372-2 30.994 69.461 68.78 47.471-12.999 26.242ZM1082.42 888.343l-14.4-6.26 13.66-81.898-21.3-47.054 30.79-18.556s15.22 45.231 15.64 60.015c.74 25.872-24.39 93.753-24.39 93.753" fill="#FF77CA"/><path fill-rule="evenodd" clip-rule="evenodd" d="m1100.11 743.982-41.02 14.714-12.19-50.948 32.18-10.327 21.03 46.561Z" fill="#E07C02"/><path fill-rule="evenodd" clip-rule="evenodd" d="m947.946 651.038-5.829 55.286 23.454 12.437s8.428 19.45 14.704 29.539c9.229 14.83 17.499 54.272 17.499 54.272h75.846l.48-30.947s18.75-73.786.67-82.127c-18.48-8.538-27.52-6.053-54.61-6.01-25.499.046-72.214-32.45-72.214-32.45" fill="#FFB400"/><path fill-rule="evenodd" clip-rule="evenodd" d="m1069.98 1203.93-37.58 13.84-42.269-295.637c-5.674-36.152-4.01-73.164 4.884-108.588l2.76-10.972h54.765l11.61 216.007 5.83 185.35Z" fill="#1F2329"/><path fill-rule="evenodd" clip-rule="evenodd" d="m1128.78 1215.89-39.3-3.21-25.34-194.1-32.76-216.008h42.23l14.35 22.569c8.96 14.114 14.41 30.371 15.85 47.29l24.97 343.459Z" fill="#1F2329"/><path fill-rule="evenodd" clip-rule="evenodd" d="m1072.43 1251.15-27.33 34.74h-38.04l24.95-18.13 10.48-31.88-.41-15.89 24.59-13.26 5.76 44.42Z" fill="#32588D"/><path fill-rule="evenodd" clip-rule="evenodd" d="m1066.54 1209.28 2.62 16.67-26.67 9.93-1.26-17.41 25.31-9.19Z" fill="#FF7070"/><path fill-rule="evenodd" clip-rule="evenodd" d="m1130.43 1251.15-27.33 34.74h-38.05l24.95-18.13 10.49-31.88-.41-15.89 24.58-13.26 5.77 44.42Z" fill="#32588D"/><path fill-rule="evenodd" clip-rule="evenodd" d="m1124.06 1205.34 2.73 16.58-26.27 9.61-1.39-17.3 24.93-8.89Z" fill="#FF7070"/><path fill-rule="evenodd" clip-rule="evenodd" d="m1078.18 1218.29-49.91 9.71-2.63-15.01 49.92-9.7 2.62 15ZM1135.54 1215.23l-49.91 8.84-2.62-13.67 49.91-8.85 2.62 13.68ZM1082.25 633.915c-7.84 26.778-34.8 41.784-60.2 33.516-23.628-7.69-37.597-32.806-33.119-57.822.33-1.88.773-3.76 1.321-5.633 4.136-14.105 13.568-24.944 25.288-30.833 10.52-5.292 22.89-6.587 34.92-2.676 25.4 8.269 39.64 36.677 31.79 63.448" fill="#121417"/><path fill-rule="evenodd" clip-rule="evenodd" d="M1104.03 585.708c-4.35 14.841-19.29 23.157-33.37 18.574-14.08-4.582-21.97-20.328-17.62-35.169 4.34-14.84 19.28-23.155 33.36-18.573 14.08 4.581 21.97 20.328 17.63 35.168" fill="#121417"/><path fill-rule="evenodd" clip-rule="evenodd" d="m990.044 624.347-17.168 14.185 11.651 5.158 5.517-19.343Z" fill="#FF77CA"/><path fill-rule="evenodd" clip-rule="evenodd" d="M1007.12 676.122s-20.827-9.478-23.271-17.923c-6.877-23.778 25.691-70.409 25.691-70.409l39.3 50.647s-6.27 49.724-6.42 49.724c-.12 0-34.88-.436-34.88-.436l-.42-11.603Z" fill="#FF77CA"/><path fill-rule="evenodd" clip-rule="evenodd" d="M989.814 625.397c-1.016 2.166-.669 4.524.776 5.267 1.445.743 3.439-.412 4.455-2.578 1.017-2.165.669-4.523-.775-5.265-1.445-.743-3.44.411-4.456 2.576M1050.78 644.24c-12.4 9.411-29.14 8.139-40.93-2.003-.94-.797-1.84-1.65-2.71-2.571a36.635 36.635 0 0 1-3.91-4.826c-11.308-16.548-8.345-39.162 6.62-50.518a30.86 30.86 0 0 1 4.47-2.84c14.5-7.594 32.88-2.728 43.1 12.23 11.2 16.39 8.38 38.731-6.21 50.191a7.09 7.09 0 0 1-.43.337" fill="#121417"/><path fill-rule="evenodd" clip-rule="evenodd" d="m1061.17 738.215-56.27 1.086-2.19-118.772 81.7-1.575 1.67 90.158c.29 15.802-10.86 28.832-24.91 29.103M1050.45 867.374l5.89 17.894 7.88 133.772-13.77-151.666Z" fill="#121417"/><path fill-rule="evenodd" clip-rule="evenodd" d="M1002.51 640.265s-1.03-10.916 6.25-10.905c5.43.008 6.9 5.453 6.89 8.598-.01 10.618-10.97 12.218-14.81 19.903" fill="#FF77CA"/><path d="M982.937 651.379s2.385.691 5.162-2.957" stroke="#121417" stroke-width="2.1"/></g><g clip-path="url('#clip3_255_26788')"><path fill-rule="evenodd" clip-rule="evenodd" d="M683.214 849.748H498.325c-19.738 0-35.738-16.871-35.738-37.679v-30.555c0-20.81 16-37.679 35.738-37.679h184.889c19.738 0 35.739 16.869 35.739 37.679v30.555c0 20.808-16.001 37.679-35.739 37.679" fill="#E8F6FF"/><path d="M1168.64 865.49H1448c12.13 0 21.92 10.322 21.92 23.15v169.97c0 12.83-9.79 23.15-21.92 23.15h-279.36c-12.17-.05-21.96-10.37-21.96-23.2V888.64c0-12.828 9.79-23.15 21.96-23.15Z" fill="#D6EEFF"/><path d="M1206.29 914.847h14.83v119.863h-14.83V914.847ZM1263.86 914.847h14.83v119.863h-14.83V914.847ZM1326.98 914.847h14.83v119.863h-14.83V914.847ZM1388.87 914.847h14.83v119.863h-14.83V914.847Z" fill="#F9F9F9"/><path d="M1388.87 984.85h14.83v49.86h-14.83v-49.86ZM1326.98 1007.9h14.83v26.81h-14.83v-26.81ZM1263.86 976.833h14.83v57.877h-14.83v-57.877ZM1206.29 1006.45h14.83v28.26h-14.83v-28.26Z" fill="#C3E4FF"/><path d="M1415.11 968.965c-7.42-.1-13.64 2.806-18.35 6.615-4.7 3.808-8.17 8.218-11.93 12.176-7.51 7.918-15.16 14.734-34.46 14.734-11.79 0-20.49-4.612-29.52-10.775-9.08-6.214-18.16-14.181-30-18.741-11.83-4.61-26.38-5.061-43.92 2.806-17.54 7.867-38.55 23.652-66.02 51.61-2.81 2.76-2.95 7.32-.34 10.28 2.62 2.95 6.94 3.1 9.75.35.05-.05.09-.1.19-.15 26.81-27.31 46.82-41.996 61.89-48.761 15.07-6.765 24.76-6.063 33.75-2.555 8.98 3.507 17.35 10.523 27.24 17.286 9.88 6.77 21.72 13.13 37.03 13.13 22.76 0 35.74-10.07 44.2-18.991 4.23-4.46 7.51-8.419 10.6-10.874 3.05-2.456 5.52-3.658 9.79-3.608 3.81.1 6.99-3.057 7.09-7.116.09-4.008-2.9-7.366-6.75-7.466-.14.05-.19.05-.24.05Z" fill="#AAD5FF"/><path fill-rule="evenodd" clip-rule="evenodd" d="M492.439 777.521h196.662v-11.043H492.439v11.043ZM492.439 802.313h196.662V791.27H492.439v11.043ZM492.439 827.104h148.789v-11.042H492.439v11.042Z" fill="#C3E4FF"/><path fill-rule="evenodd" clip-rule="evenodd" d="M823.928 992.49H413.946c-19.739 0-35.74-16.87-35.74-37.68v-32.9c0-20.81 16.001-37.68 35.74-37.68h409.982c19.739 0 35.74 16.87 35.74 37.68v32.9c0 20.81-16.001 37.68-35.74 37.68" fill="#E8F6FF"/><path fill-rule="evenodd" clip-rule="evenodd" d="M490.854 919.091h331.194v-11.043H490.854v11.043ZM490.854 943.882h331.194V932.84H490.854v11.042ZM490.854 968.673h250.573v-11.042H490.854v11.042Z" fill="#C3E4FF"/><path fill-rule="evenodd" clip-rule="evenodd" d="M465.354 938.361c0 16.741-12.872 30.312-28.752 30.312-15.879 0-28.752-13.571-28.752-30.312s12.873-30.313 28.752-30.313c15.88 0 28.752 13.572 28.752 30.313" fill="#AAD5FF"/><path fill-rule="evenodd" clip-rule="evenodd" d="M1344.13 817.733h-332.32c-19.732 0-35.734-16.87-35.734-37.679V749.5c0-20.81 16.002-37.679 35.734-37.679h332.32c19.74 0 35.74 16.869 35.74 37.679v30.554c0 20.809-16 37.679-35.74 37.679" fill="#E8F6FF"/><path fill-rule="evenodd" clip-rule="evenodd" d="M1088.62 744.265h255.48v-11.042h-255.48v11.042ZM1088.62 769.057h255.48v-11.042h-255.48v11.042ZM1088.62 825.863h193.29v-11.042h-193.29v11.042Z" fill="#C3E4FF"/><path fill-rule="evenodd" clip-rule="evenodd" d="M1063.29 795.55c0 16.742-12.87 30.313-28.75 30.313s-28.75-13.571-28.75-30.313c0-16.741 12.87-30.313 28.75-30.313s28.75 13.572 28.75 30.313" fill="#AAD5FF"/><path fill-rule="evenodd" clip-rule="evenodd" d="M753.095 1106.63c-24.153 0-43.732-20.64-43.732-46.1s19.579-46.1 43.732-46.1c24.152 0 43.732 20.64 43.732 46.1s-19.58 46.1-43.732 46.1" fill="#E8F6FF"/><path fill-rule="evenodd" clip-rule="evenodd" d="M746.639 1066.31c-7.019 0-12.685-5.98-12.685-13.38s5.666-13.37 12.685-13.37 12.685 5.97 12.685 13.37c0 7.4-5.666 13.38-12.685 13.38Zm16.913 0h-2.226l-.79-.81c2.762-3.38 4.426-7.78 4.426-12.57 0-10.67-8.203-19.31-18.323-19.31-10.119 0-18.322 8.64-18.322 19.31 0 10.67 8.203 19.32 18.322 19.32 4.539 0 8.711-1.75 11.924-4.67l.761.84v2.34l14.094 14.83 4.201-4.43-14.067-14.85Z" fill="#AAD5FF"/><path fill-rule="evenodd" clip-rule="evenodd" d="M845.362 702.649H345.909c-19.738 0-35.739-16.87-35.739-37.68v-37.944c0-20.81 16.001-37.68 35.739-37.68h499.453c19.737 0 35.738 16.87 35.738 37.68v37.944c0 20.81-16.001 37.68-35.738 37.68" fill="#D6EEFF"/><path fill-rule="evenodd" clip-rule="evenodd" d="M881.102 627.024v6.798H310.168v-6.798c0-20.808 16.006-37.676 35.743-37.676h499.448c19.738 0 35.743 16.868 35.743 37.676" fill="#AAD5FF"/><path fill-rule="evenodd" clip-rule="evenodd" d="M354.762 612.98c0 5.932-4.561 10.741-10.188 10.741-5.627 0-10.187-4.809-10.187-10.741 0-5.932 4.56-10.741 10.187-10.741s10.188 4.809 10.188 10.741M382.045 612.98c0 5.932-4.561 10.741-10.188 10.741-5.626 0-10.187-4.809-10.187-10.741 0-5.932 4.561-10.741 10.187-10.741 5.627 0 10.188 4.809 10.188 10.741M409.329 612.98c0 5.932-4.562 10.741-10.188 10.741s-10.188-4.809-10.188-10.741c0-5.932 4.562-10.741 10.188-10.741s10.188 4.809 10.188 10.741M933.037 781.512v30.554c0 20.815-16.006 37.683-35.742 37.683h-75.256c-19.737 0-35.735-16.868-35.735-37.683v-30.554c0-7.305 1.975-14.13 5.385-19.908a37.94 37.94 0 0 1 4.446-6.052 35.291 35.291 0 0 1 1.722-1.78c6.361-6.171 14.857-9.936 24.182-9.936h75.256c9.323 0 17.82 3.765 24.182 9.936.593.57 1.168 1.168 1.722 1.78a37.68 37.68 0 0 1 4.445 6.059c3.417 5.778 5.393 12.596 5.393 19.901" fill="#E8F6FF"/><path fill-rule="evenodd" clip-rule="evenodd" d="m927.644 761.612-67.967 44.114-67.987-44.121a37.88 37.88 0 0 1 4.446-6.052 35.291 35.291 0 0 1 1.722-1.78l61.819 40.117 61.8-40.117c.593.57 1.168 1.168 1.722 1.78a37.62 37.62 0 0 1 4.445 6.059" fill="#D0F0FF"/><path fill-rule="evenodd" clip-rule="evenodd" d="M948.763 750.591c0 14.499-11.149 26.254-24.902 26.254-13.753 0-24.902-11.755-24.902-26.254 0-14.5 11.149-26.254 24.902-26.254 13.753 0 24.902 11.754 24.902 26.254" fill="#C3E4FF"/><path d="m668.298 467.882-30.68 32.341c19.548 19.768 46.053 31.992 75.075 31.992 30.547 0 58.311-13.481 78.123-35.135l-39.558-24.099c-10.801 8.312-24.053 13.202-38.565 13.202-17.228.07-32.799-6.915-44.395-18.301Z" fill="#AAD5FF"/><path d="M709.115 302.963c-58.178 2.026-105.158 52.808-105.158 114.556 0 32.411 12.987 61.819 33.661 82.704l30.68-32.341c-12.789-12.503-20.74-30.316-20.74-50.363 0-36.951 27.035-66.568 61.557-68.524v-46.032ZM751.258 472.982l39.558 24.099c18.951-20.676 30.68-48.687 30.68-79.561 0-42.889-22.728-80.539-56.058-100.167l-21.734 39.606c20.409 11.525 34.125 34.227 34.125 60.561.066 22.911-10.403 43.028-26.571 55.462Z" fill="#D6EEFF"/><path d="M709.115 302.963v46.032c1.193-.07 2.386-.209 3.645-.209 11.264 0 21.8 2.933 31.01 8.172l21.734-39.605c-15.638-9.221-33.595-14.529-52.744-14.529-1.259.069-2.452.139-3.645.139Z" fill="#C3E4FF"/></g></g><defs><clipPath id="clip0_255_26788"><path fill="#fff" transform="translate(.68)" d="M0 0h1950.64v1289.27H0z"/></clipPath><clipPath id="clip1_255_26788"><path fill="#fff" transform="translate(.68)" d="M0 0h1950.64v1210.47H0z"/></clipPath><clipPath id="clip2_255_26788"><path fill="#fff" transform="translate(788.654)" d="M0 0h508.373v1289.27H0z"/></clipPath><clipPath id="clip3_255_26788"><path fill="#fff" transform="translate(310.168)" d="M0 0h1175.23v1106.63H0z"/></clipPath></defs></svg>