<svg width="2317" height="966" fill="none" xmlns="http://www.w3.org/2000/svg"><path fill-rule="evenodd" clip-rule="evenodd" d="M727.209 41.596c-5.888 15.486-22.57 23.008-37.262 16.8-14.69-6.207-21.826-23.794-15.937-39.28 5.889-15.486 22.571-23.01 37.263-16.801 14.69 6.208 21.825 23.794 15.936 39.28" fill="#D6EEFF"/><path fill-rule="evenodd" clip-rule="evenodd" d="M714.914 660.534c-3.166 8.328-12.138 12.374-20.038 9.035-7.9-3.337-11.737-12.795-8.57-21.123 3.167-8.328 12.138-12.373 20.038-9.035 7.899 3.339 11.737 12.796 8.57 21.123" fill="#AAD5FF"/><path fill-rule="evenodd" clip-rule="evenodd" d="M21.184 87.646c0 6.14-4.722 11.117-10.545 11.117-5.825 0-10.546-4.978-10.546-11.117 0-6.139 4.721-11.116 10.546-11.116 5.823 0 10.545 4.977 10.545 11.116M1214.69 61.242c0 6.139-4.72 11.116-10.54 11.116-5.83 0-10.55-4.977-10.55-11.117 0-6.139 4.72-11.116 10.55-11.116 5.82 0 10.54 4.977 10.54 11.117M2035.44 20.711c0 6.14-4.73 11.116-10.55 11.116s-10.54-4.977-10.54-11.116c0-6.14 4.72-11.116 10.54-11.116 5.82 0 10.55 4.977 10.55 11.116M1339.71 252.813c0 6.139-4.72 11.116-10.54 11.116-5.83 0-10.55-4.977-10.55-11.116 0-6.139 4.72-11.116 10.55-11.116 5.82 0 10.54 4.977 10.54 11.116M792.963 405.311c0 6.139-4.721 11.116-10.545 11.116-5.825 0-10.546-4.977-10.546-11.116 0-6.139 4.721-11.116 10.546-11.116 5.824 0 10.545 4.977 10.545 11.116M826.916 83.475c0 6.14-4.722 11.117-10.545 11.117-5.825 0-10.546-4.977-10.546-11.117 0-6.14 4.721-11.116 10.546-11.116 5.823 0 10.545 4.977 10.545 11.116" fill="#D6EEFF"/><path fill-rule="evenodd" clip-rule="evenodd" d="M1278.47 764.808c0 6.139-4.72 11.117-10.55 11.117-5.82 0-10.54-4.978-10.54-11.117 0-6.139 4.72-11.116 10.54-11.116 5.83 0 10.55 4.977 10.55 11.116" fill="#C3E4FF"/><path fill-rule="evenodd" clip-rule="evenodd" d="M293.862 94.592c-9.667 0-17.508 25.073-17.508 55.993 0-30.92-7.837-55.993-17.509-55.993 9.672 0 17.509-25.072 17.509-55.994 0 30.922 7.841 55.994 17.508 55.994M848.101 775.925c-11.698 0-21.186 30.336-21.186 67.749 0-37.413-9.481-67.749-21.183-67.749 11.702 0 21.183-30.338 21.183-67.751 0 37.413 9.488 67.751 21.186 67.751" fill="#E8F6FF"/><path fill-rule="evenodd" clip-rule="evenodd" d="M2316.68 157.274c-9.17 0-16.61 23.783-16.61 53.114 0-29.331-7.43-53.114-16.6-53.114 9.17 0 16.6-23.782 16.6-53.114 0 29.332 7.44 53.114 16.61 53.114M384.56 279.752c0 7.437-5.72 13.467-12.775 13.467-7.057 0-12.778-6.03-12.778-13.467 0-7.438 5.721-13.469 12.778-13.469 7.055 0 12.775 6.031 12.775 13.469" fill="#D6EEFF"/><path fill-rule="evenodd" clip-rule="evenodd" d="M184.491 212.281c0 4.587-3.528 8.304-7.877 8.304-4.352 0-7.878-3.717-7.878-8.304s3.526-8.305 7.878-8.305c4.349 0 7.877 3.718 7.877 8.305" fill="#C3E4FF"/><path fill-rule="evenodd" clip-rule="evenodd" d="M515.296 107.773c0 13.458-10.347 24.367-23.114 24.367-12.766 0-23.114-10.909-23.114-24.367 0-13.457 10.348-24.367 23.114-24.367 12.767 0 23.114 10.91 23.114 24.367" fill="#D6EEFF"/><path fill-rule="evenodd" clip-rule="evenodd" d="M1120.3 953.463c0 6.776-5.21 12.272-11.64 12.272-6.42 0-11.64-5.496-11.64-12.272 0-6.778 5.22-12.272 11.64-12.272 6.43 0 11.64 5.494 11.64 12.272" fill="#AAD5FF"/></svg>