<svg width="53" height="52" fill="none" xmlns="http://www.w3.org/2000/svg"><path d="M52.5 4.406C52.5 1.976 50.565 0 48.186 0H4.82C2.441 0 .505 1.976.505 4.406L.5 47.594C.5 50.024 2.435 52 4.814 52H48.18c2.378 0 4.314-1.976 4.314-4.406L52.5 4.406Zm-49.872 0c0-1.234.983-2.238 2.191-2.238h43.367c1.209 0 2.191 1.004 2.191 2.238v30.153H2.627V4.406Zm47.744 43.188c0 1.234-.983 2.238-2.191 2.238H4.814c-1.208 0-2.191-1.004-2.191-2.238V36.73h47.75v10.865Zm-42.818-3.23h26.252c.465 1.683 1.978 2.92 3.772 2.92 1.793 0 3.306-1.237 3.77-2.92h4.093c.586 0 1.061-.485 1.061-1.083 0-.599-.475-1.084-1.061-1.084h-4.093c-.464-1.683-1.977-2.92-3.77-2.92-1.794 0-3.307 1.237-3.772 2.92H7.555c-.586 0-1.061.485-1.061 1.084 0 .598.475 1.084 1.06 1.084Zm30.023-2.92c.992 0 1.799.824 1.799 1.837 0 1.012-.807 1.836-1.798 1.836-.992 0-1.8-.824-1.8-1.836 0-1.013.808-1.837 1.8-1.837ZM11.78 9.844h-.793V6.62c0-.598-.475-1.084-1.06-1.084-.587 0-1.062.486-1.062 1.084v3.224H8.07c-1.183 0-2.145.983-2.145 2.191v3.798c0 1.208.962 2.19 2.145 2.19h.793v12.083c0 .599.475 1.084 1.061 1.084s1.061-.485 1.061-1.084V18.024h.793c1.183 0 2.145-.983 2.145-2.191v-3.798c0-1.208-.962-2.191-2.145-2.191Zm0 6.012-3.73-.023.022-3.822h3.708c.013 0 .023.01.023.024l-.023 3.821Zm11.052 2.846h-.793V6.62c0-.598-.475-1.084-1.061-1.084s-1.062.486-1.062 1.084v12.082h-.792c-1.183 0-2.146.983-2.146 2.191v3.798c0 1.209.963 2.191 2.146 2.191h.792v3.224c0 .599.476 1.084 1.062 1.084.586 0 1.061-.485 1.061-1.084v-3.224h.793c1.183 0 2.145-.982 2.145-2.19v-3.799c0-1.208-.962-2.19-2.145-2.19Zm0 6.013L19.1 24.69l.023-3.821h3.708c.012 0 .023.01.023.023l-.023 3.822Zm11.05-10.442h-.792V6.62c0-.598-.475-1.084-1.061-1.084s-1.061.486-1.061 1.084v7.653h-.793c-1.183 0-2.145.983-2.145 2.191v3.798c0 1.208.962 2.191 2.145 2.191h.793v7.653c0 .599.475 1.084 1.06 1.084.587 0 1.062-.485 1.062-1.084v-7.653h.793c1.183 0 2.145-.983 2.145-2.191v-3.798c0-1.208-.962-2.191-2.145-2.191Zm0 6.013-3.73-.024.023-3.822h3.708c.013 0 .023.01.023.024l-.023 3.822Zm11.053.63h-.793V6.62c0-.598-.475-1.084-1.061-1.084-.587 0-1.062.486-1.062 1.084v14.297h-.793c-1.183 0-2.145.983-2.145 2.19v3.799c0 1.208.963 2.19 2.145 2.19h.793v1.01c0 .599.475 1.084 1.062 1.084.586 0 1.06-.485 1.06-1.084v-1.01h.794c1.183 0 2.145-.982 2.145-2.19v-3.798c0-1.208-.962-2.191-2.145-2.191Zm0 6.013-3.731-.023.022-3.822h3.709c.012 0 .022.011.022.024l-.023 3.821Z" fill="#0D90CE"/></svg>