<svg width="75" height="77" fill="none" xmlns="http://www.w3.org/2000/svg"><g clip-path="url('#clip0_242_4137')" fill="#098ECD"><path d="M12.833 56.822H29.64a18.174 18.174 0 0 1-2.979-1.81H12.833c-.466 0-.913-.189-1.243-.527a1.832 1.832 0 0 1-.519-1.275V26.052c.002-.48.188-.938.519-1.275.33-.338.777-.528 1.243-.527h13.845a18.428 18.428 0 0 1 2.973-1.81H12.833c-.462 0-.92.093-1.347.274a3.514 3.514 0 0 0-1.143.782 3.623 3.623 0 0 0-.764 1.172 3.7 3.7 0 0 0-.27 1.384V53.21c.001.475.093.945.27 1.383.177.439.437.837.764 1.172.327.336.716.602 1.143.783a3.44 3.44 0 0 0 1.347.273ZM62.167 24.25c.466 0 .913.189 1.243.527.33.337.517.796.519 1.275V53.21a1.832 1.832 0 0 1-.519 1.275c-.33.338-.777.528-1.243.527H48.33a18.287 18.287 0 0 1-2.987 1.81h16.824a3.474 3.474 0 0 0 2.49-1.057 3.666 3.666 0 0 0 1.034-2.555V26.052c-.001-.475-.093-.945-.27-1.384a3.623 3.623 0 0 0-.764-1.171 3.516 3.516 0 0 0-1.143-.783 3.44 3.44 0 0 0-1.347-.273H45.344a18.445 18.445 0 0 1 2.977 1.809h13.846Zm.44-14.929c.261 0 .517-.08.734-.228a1.35 1.35 0 0 0 .487-.61 1.391 1.391 0 0 0-.287-1.478 1.29 1.29 0 0 0-1.44-.294 1.33 1.33 0 0 0-.593.5 1.383 1.383 0 0 0 .165 1.713c.248.254.584.397.934.397Zm0-2.035c.13 0 .259.04.367.114.109.075.194.18.244.305a.697.697 0 0 1-.144.74.644.644 0 0 1-.72.147.665.665 0 0 1-.296-.25.692.692 0 0 1 .082-.857.653.653 0 0 1 .467-.2Zm-12.333 12.44c.261 0 .517-.08.734-.229a1.35 1.35 0 0 0 .487-.609 1.39 1.39 0 0 0-.287-1.479 1.311 1.311 0 0 0-.676-.371 1.29 1.29 0 0 0-.764.077 1.33 1.33 0 0 0-.593.5 1.384 1.384 0 0 0 .165 1.713c.248.255.583.398.934.398Zm0-2.035c.13 0 .258.04.367.114.108.074.193.18.243.304a.696.696 0 0 1-.143.74.644.644 0 0 1-.72.147.665.665 0 0 1-.297-.25.692.692 0 0 1 .083-.856.652.652 0 0 1 .467-.2ZM27.809 4.345c.262 0 .517-.08.735-.228a1.35 1.35 0 0 0 .486-.61c.1-.248.127-.52.076-.784a1.37 1.37 0 0 0-.362-.695c-.185-.19-.42-.319-.677-.37a1.29 1.29 0 0 0-.763.076 1.33 1.33 0 0 0-.593.5 1.383 1.383 0 0 0 .165 1.713c.247.255.583.398.933.398Zm0-2.035c.131 0 .259.04.368.114.108.074.193.18.243.304a.696.696 0 0 1-.143.74.644.644 0 0 1-.72.147.664.664 0 0 1-.297-.25.692.692 0 0 1 .082-.857.653.653 0 0 1 .468-.198ZM70.536 28.32c0-.268-.078-.53-.223-.754a1.33 1.33 0 0 0-.593-.5 1.29 1.29 0 0 0-.763-.077 1.311 1.311 0 0 0-.677.372c-.185.19-.31.431-.362.695-.05.263-.025.536.075.784s.27.46.487.609a1.297 1.297 0 0 0 1.668-.17c.248-.254.387-.599.388-.959Zm-1.982 0c0-.134.038-.265.11-.377a.665.665 0 0 1 .297-.25.645.645 0 0 1 .72.148.695.695 0 0 1 .143.74.676.676 0 0 1-.243.304.649.649 0 0 1-.834-.085.688.688 0 0 1-.193-.48ZM5.786 21.537a.865.865 0 0 0-.49.152.9.9 0 0 0-.324.406.927.927 0 0 0 .19.986.86.86 0 0 0 .96.196.886.886 0 0 0 .396-.333.922.922 0 0 0-.11-1.142.87.87 0 0 0-.622-.265Zm0 1.357a.432.432 0 0 1-.245-.076.464.464 0 0 1-.067-.696.438.438 0 0 1 .48-.098c.08.034.15.092.198.166a.461.461 0 0 1-.055.571.435.435 0 0 1-.311.133ZM1.381 62.25c.486 0 .88-.405.88-.905s-.394-.905-.88-.905a.893.893 0 0 0-.881.905c0 .5.394.905.88.905ZM5.345 60.44H4.024a.87.87 0 0 0-.623.265.917.917 0 0 0-.258.64c0 .24.093.47.258.64a.87.87 0 0 0 .623.265h1.321a.87.87 0 0 0 .623-.265c.165-.17.258-.4.258-.64s-.093-.47-.258-.64a.87.87 0 0 0-.623-.265Zm65.631 0h-1.321a.87.87 0 0 0-.623.265.917.917 0 0 0-.258.64c0 .24.093.47.258.64a.87.87 0 0 0 .623.265h1.321a.87.87 0 0 0 .623-.265c.165-.17.258-.4.258-.64s-.093-.47-.258-.64a.87.87 0 0 0-.623-.265ZM73.62 62.25c.486 0 .88-.405.88-.905s-.394-.905-.88-.905a.893.893 0 0 0-.882.905c0 .5.394.905.881.905Z"/><path d="M66.89 60.44H42.785v-4.495a16.766 16.766 0 0 0 8.097-5.99 17.489 17.489 0 0 0 3.34-9.658l.015-1.214-.013-.108c-.17-4.324-1.918-8.424-4.898-11.485-2.979-3.061-6.97-4.858-11.18-5.035l-1.18-.015-.106.014c-4.21.174-8.201 1.97-11.181 5.029-2.98 3.058-4.73 7.157-4.903 11.48l-.015 1.213.013.109a17.507 17.507 0 0 0 3.34 9.664 16.785 16.785 0 0 0 8.1 5.998v4.493H8.11a.867.867 0 0 0-.701.22.911.911 0 0 0-.303.685.934.934 0 0 0 .303.686.882.882 0 0 0 .7.219h58.78a.868.868 0 0 0 .7-.22.91.91 0 0 0 .303-.685.934.934 0 0 0-.303-.685.882.882 0 0 0-.7-.22ZM48.724 49.78a16.709 16.709 0 0 0-4.119-2.817c.444-2.12.688-4.28.73-6.45h7.094a15.587 15.587 0 0 1-3.705 9.266Zm3.705-11.034h-7.094a34.037 34.037 0 0 0-.99-7.56 16.587 16.587 0 0 0 3.754-2.39c2.585 2.658 4.126 6.2 4.33 9.95Zm-5.677-11.183a14.864 14.864 0 0 1-2.928 1.855 15.877 15.877 0 0 0-2.307-4.585 14.878 14.878 0 0 1 5.235 2.73Zm-8.393-3.131c1.507.56 2.898 2.581 3.87 5.64a14.569 14.569 0 0 1-3.87.76v-6.4Zm0 8.231a16.288 16.288 0 0 0 4.354-.828 34.04 34.04 0 0 1 .84 6.911H38.36v-6.083Zm5.194 7.85a34.824 34.824 0 0 1-.594 5.765 16.304 16.304 0 0 0-4.6-.915v-4.85h5.194Zm-5.194 6.684c1.431.083 2.844.377 4.194.874-.975 3.706-2.485 6.134-4.194 6.76v-7.634ZM36.64 24.43v6.4a14.557 14.557 0 0 1-3.87-.76c.973-3.059 2.363-5.08 3.87-5.64Zm-4.6 21.848a34.89 34.89 0 0 1-.594-5.765h5.194v4.85c-1.567.08-3.116.389-4.6.915Zm4.6.918v7.633c-1.71-.626-3.22-3.054-4.193-6.759a14.543 14.543 0 0 1 4.193-.874Zm-5.194-8.45c.042-2.328.323-4.645.84-6.911 1.408.473 2.873.75 4.353.827l.001 6.083h-5.194Zm2.038-13.914a15.837 15.837 0 0 0-2.309 4.585 14.885 14.885 0 0 1-2.927-1.855 14.865 14.865 0 0 1 5.236-2.73ZM26.9 28.797a16.647 16.647 0 0 0 3.755 2.39 34.15 34.15 0 0 0-.991 7.56H22.57c.203-3.75 1.744-7.293 4.329-9.95Zm-4.33 11.717h7.094c.042 2.169.287 4.328.732 6.45a16.675 16.675 0 0 0-4.12 2.815 15.576 15.576 0 0 1-3.705-9.265Zm4.963 10.566a14.984 14.984 0 0 1 3.31-2.306 16.974 16.974 0 0 0 2.64 5.653 14.855 14.855 0 0 1-5.95-3.347Zm13.49 9.36h-7.047v-3.619h7.048v3.62Zm.494-6.013a16.968 16.968 0 0 0 2.64-5.653 14.987 14.987 0 0 1 3.31 2.306 14.842 14.842 0 0 1-5.95 3.347ZM6.077 34.639l.776-1.05-.49-.285-.499 1.175h-.016l-.507-1.167-.5.294.77 1.024v.017l-1.203-.16v.572l1.21-.16v.017l-.776 1.024.466.303.531-1.184h.017l.49 1.175.516-.302-.785-1.008v-.016l1.234.15v-.57l-1.234.168v-.017ZM13.231 13.402l.653-.882-.412-.24-.42.988h-.013l-.426-.981-.42.247.646.861v.014l-1.01-.134v.48l1.017-.134v.014l-.653.86.392.255.447-.995h.014l.412.988.433-.254-.66-.847v-.014l1.038.127v-.48l-1.038.14v-.013ZM41.806 7.09l-.377.497.226.147.259-.575h.008l.237.57.25-.146-.38-.49v-.008l.599.074v-.277l-.6.081v-.008l.378-.51-.238-.138-.242.57h-.009l-.245-.566-.243.143.374.497v.008l-.584-.077v.277l.587-.077v.008ZM66.571 18.153v-.299l-.645.088v-.009l.406-.55-.256-.148-.262.615h-.008l-.265-.611-.261.154.402.536v.009l-.63-.084v.299l.634-.083v.008l-.407.536.244.159.279-.62h.008l.257.615.27-.158-.411-.527v-.01l.645.08ZM29.454 15.204l-.508.67.305.198.348-.775h.01l.321.77.337-.198-.513-.66v-.01l.807.098v-.373l-.807.11v-.011l.508-.687-.321-.186-.326.769h-.011l-.331-.764-.327.192.503.67v.012l-.786-.105v.373l.791-.104v.011ZM52.544 64.512h-3.66a.875.875 0 0 0-.578.29.921.921 0 0 0 0 1.23c.15.168.357.271.579.29h3.659a.875.875 0 0 0 .579-.29.921.921 0 0 0 0-1.23.875.875 0 0 0-.579-.29Zm-26.429 0h-3.659a.875.875 0 0 0-.579.29.921.921 0 0 0 0 1.231c.15.167.358.27.579.288h3.66a.875.875 0 0 0 .578-.289.921.921 0 0 0 0-1.23.875.875 0 0 0-.579-.29Zm20.195 0H28.69a.87.87 0 0 0-.622.265.917.917 0 0 0-.259.64c0 .24.093.47.259.64a.87.87 0 0 0 .622.264h7.022v.905h-3.498a.87.87 0 0 0-.623.265.918.918 0 0 0 0 1.28.87.87 0 0 0 .623.265h11.012a.87.87 0 0 0 .623-.265c.165-.17.258-.4.258-.64s-.093-.47-.258-.64a.87.87 0 0 0-.623-.265h-3.938v-.904h7.022a.87.87 0 0 0 .622-.266c.166-.17.258-.4.258-.64s-.092-.47-.258-.639a.87.87 0 0 0-.623-.265Z"/></g><defs><clipPath id="clip0_242_4137"><path fill="#fff" transform="translate(.5 .5)" d="M0 0h74v76H0z"/></clipPath></defs></svg>